<svg width="180" height="180" viewBox="0 0 180 180" fill="none" xmlns="http://www.w3.org/2000/svg">
  <path d="M63 145H113C120.73 145 127 138.73 127 131V121H74C66.27 121 60 127.27 60 135C60 139.9 58.39 145 63 145Z" fill="#59B34C" stroke="#0B0B0B" stroke-width="6" stroke-linejoin="round"/>
  <path d="M69 120V68C69 55.85 78.85 46 91 46C103.15 46 113 55.85 113 68V120H69Z" fill="#59B34C" stroke="#0B0B0B" stroke-width="6" stroke-linejoin="round"/>
  <path d="M78 50L92 46L102 56L86 61L78 50Z" fill="#F5B53B" stroke="#0B0B0B" stroke-width="6" stroke-linejoin="round"/>
  <path d="M84 70L102 121" stroke="#0B0B0B" stroke-width="6" stroke-linecap="round"/>
  <path d="M103 92L124 79L126 121" stroke="#0B0B0B" stroke-width="6" stroke-linecap="round" stroke-linejoin="round"/>
  <path d="M118 80L132 80" stroke="#0B0B0B" stroke-width="6" stroke-linecap="round"/>
  <path d="M127 67L127 91" stroke="#0B0B0B" stroke-width="6" stroke-linecap="round"/>
  <path d="M93 33C101.09 33 108.35 36.33 113.54 41.72C109.86 39.71 105.67 38.6 101.21 38.6C87.93 38.6 77.2 49.33 77.2 62.61C77.2 70.78 81.28 78.01 87.54 82.39C80.73 81.79 74.82 78.53 70.72 73.68C66.65 68.87 64.15 62.65 64.15 55.88C64.15 42.28 75.21 33 93 33Z" fill="#F5B53B" stroke="#0B0B0B" stroke-width="6" stroke-linejoin="round"/>
  <path d="M103 36C111.46 36 118.5 43.04 118.5 51.5C118.5 59.96 111.46 67 103 67C100.68 67 98.48 66.48 96.5 65.54C101.48 62.68 105 57.45 105 51.5C105 46.04 102.17 41.24 97.93 38.68C99.81 36.99 101.99 36 103 36Z" fill="#0B0B0B"/>
  <circle cx="100" cy="53" r="3.8" fill="#0B0B0B"/>
</svg>