<svg width="256" height="256" viewBox="0 0 256 256" fill="none" xmlns="http://www.w3.org/2000/svg">
  <path d="M88 205H160C170.5 205 179 196.5 179 186V173H103C92.5 173 84 181.5 84 192C84 198.63 81.82 205 88 205Z" fill="#59B34C" stroke="#0B0B0B" stroke-width="8" stroke-linejoin="round"/>
  <path d="M96 172V99C96 81.39 110.39 67 128 67C145.61 67 160 81.39 160 99V172H96Z" fill="#59B34C" stroke="#0B0B0B" stroke-width="8" stroke-linejoin="round"/>
  <path d="M109 72L131 66L146 82L123 90L109 72Z" fill="#F5B53B" stroke="#0B0B0B" stroke-width="8" stroke-linejoin="round"/>
  <path d="M119 96L148 172" stroke="#0B0B0B" stroke-width="8" stroke-linecap="round"/>
  <path d="M151 128L184 107L186 172" stroke="#0B0B0B" stroke-width="8" stroke-linecap="round" stroke-linejoin="round"/>
  <path d="M175 108L196 108" stroke="#0B0B0B" stroke-width="8" stroke-linecap="round"/>
  <path d="M188 89L188 124" stroke="#0B0B0B" stroke-width="8" stroke-linecap="round"/>
  <path d="M131 40C143.87 40 155.43 45.3 163.68 53.86C157.84 50.67 151.17 48.9 144.09 48.9C122.95 48.9 105.9 65.95 105.9 87.09C105.9 100.1 112.39 111.59 122.34 118.56C111.55 117.61 102.18 112.43 95.65 104.71C89.18 97.05 85.2 87.14 85.2 76.35C85.2 54.69 102.84 40 131 40Z" fill="#F5B53B" stroke="#0B0B0B" stroke-width="8" stroke-linejoin="round"/>
  <path d="M146 45C159.48 45 171 56.52 171 70C171 83.48 159.48 95 146 95C142.33 95 138.85 94.17 135.74 92.69C143.26 88.35 148.5 80.26 148.5 71C148.5 62.34 143.99 54.73 137.2 50.6C139.94 47.23 143.3 45 146 45Z" fill="#0B0B0B"/>
  <circle cx="143" cy="72" r="5.5" fill="#0B0B0B"/>
  <path d="M131 41C127 43 124 46 122 50" stroke="#0B0B0B" stroke-width="8" stroke-linecap="round"/>
</svg>