<svg width="256" height="256" viewBox="0 0 256 256" fill="none" xmlns="http://www.w3.org/2000/svg">
  <rect width="256" height="256" rx="56" fill="white"/>
  <path d="M86 206H156C168.15 206 178 196.15 178 184V170H102C89.85 170 80 179.85 80 192C80 199.18 85.82 206 86 206Z" fill="#59B34C" stroke="#0B0B0B" stroke-width="8" stroke-linejoin="round"/>
  <path d="M95 170V94C95 77.43 108.43 64 125 64H134C150.57 64 164 77.43 164 94V170H95Z" fill="#59B34C" stroke="#0B0B0B" stroke-width="8" stroke-linejoin="round"/>
  <path d="M108 70L131 64L147 81L123 89L108 70Z" fill="#F5B53B" stroke="#0B0B0B" stroke-width="8" stroke-linejoin="round"/>
  <path d="M118 92L149 170" stroke="#0B0B0B" stroke-width="8" stroke-linecap="round"/>
  <path d="M150 125L185 104L188 170" stroke="#0B0B0B" stroke-width="8" stroke-linecap="round" stroke-linejoin="round"/>
  <path d="M176 106L198 106" stroke="#0B0B0B" stroke-width="8" stroke-linecap="round"/>
  <path d="M190 88L190 124" stroke="#0B0B0B" stroke-width="8" stroke-linecap="round"/>
  <path d="M130 42C142.15 42 153.11 46.66 161.32 54.26C154.64 50.91 147.07 49 139 49C111.39 49 89 71.39 89 99C89 108.06 91.42 116.55 95.65 123.86C82.47 116.03 74 101.82 74 85.5C74 60.48 94.48 42 130 42Z" fill="#F5B53B" stroke="#0B0B0B" stroke-width="8" stroke-linejoin="round"/>
  <path d="M144 47C160.57 47 174 60.43 174 77C174 93.57 160.57 107 144 107C139.88 107 135.95 106.17 132.35 104.68C143.19 98.69 150.5 87.17 150.5 74C150.5 61.78 144.15 50.95 134.6 44.88C137.55 43.57 140.75 42.75 144 42.75V47Z" fill="#0B0B0B"/>
  <circle cx="139" cy="77" r="6" fill="#0B0B0B"/>
</svg>